<svg viewBox="0 0 24 24" xmlns="http://www.w3.org/2000/svg" fill-rule="evenodd" clip-rule="evenodd" stroke-linejoin="round" stroke-miterlimit="2"><path d="M12 4c-4.337 0-8 3.664-8 8s3.663 8 8 8 8-3.664 8-8-3.663-8-8-8zm0 14V6c3.282 0 6 2.716 6 6 0 3.281-2.718 6-6 6z" fill="#fff" fill-rule="nonzero"/><path d="M11 0h2v3h-2zm0 21h2v3h-2zm13-8v-2h-3v2h3zM3 13v-2H0v2h3zm16.778 8.192l1.414-1.414-2.121-2.121-1.414 1.414 2.121 2.121zM4.929 6.343l1.414-1.414-2.121-2.121-1.414 1.414 2.121 2.121zM2.808 19.778l1.414 1.414 2.121-2.121-1.414-1.414-2.121 2.121zM17.657 4.929l1.414 1.414 2.121-2.121-1.414-1.414-2.121 2.121z" fill="#fff"/></svg>